<svg id="Layer_1_1_" enable-background="new 0 0 64 64" height="512" viewBox="0 0 64 64" width="512" xmlns="http://www.w3.org/2000/svg"><path d="m48 14-9-9h-7v57h29v-4l-7-7h-11v-6l7-7v-14h-2z" fill="#4c1ea5"/><path d="m32 51h-23c-3.31 0-6 2.69-6 6v5h29z" fill="#e58842"/><path d="m32 56-8-5v-8h8z" fill="#e8dac5"/><path d="m24 43v4.323c2.528 1.111 5.214 1.677 8 1.677v-6z" fill="#dbc6a9"/><path d="m24 45.12c-1.76-.87-3.36-2.02-4.73-3.39-3.25-3.26-5.27-7.76-5.27-12.73v-8c0-2.15.39-4.19 1.08-6.1.04.01.09.01.14.02.32.05.65.08.99.08h15.79v5 6 8 11 2c-2.88 0-5.59-.68-8-1.88z" fill="#e8dac5"/><path d="m32 15h-15.79c-.34 0-.67-.03-.99-.08-.05-.01-.1-.01-.14-.02-2.54-.46-4.65-2.42-5.02-5.03-.48-3.42 1.93-6.38 5.14-6.81.43 1.13 1.52 1.94 2.8 1.94h14z" fill="#f4b34a"/><circle cx="25" cy="26" fill="#e8dac5" r="2"/><path d="m14 30h-2c-1.1 0-2.1-.45-2.83-1.17-.72-.73-1.17-1.73-1.17-2.83 0-2.21 1.79-4 4-4h2z" fill="#e8dac5"/><path d="m15.22 14.92c-.05-.01-.1-.01-.14-.02-.246.682-.439 1.386-.605 2.1h17.525v-2h-15.79c-.34 0-.67-.03-.99-.08z" fill="#dbc6a9"/><circle cx="25" cy="26" fill="#6c253d" r="2"/><g fill="#e58842"><path d="m45.883 13.297-7.297-7.297h-6.586v-2h7.414l7.883 7.883z"/><path d="m52 25h-7.414l-4-4h-8.586v-2h9.414l4 4h6.586z"/><path d="m37 28h2v15h-2z"/><path d="m44 35h-2v-5h6v2h-4z"/><path d="m32 11h4v2h-4z"/><path d="m32 50h9v2h-9z"/><path d="m62 62h-2v-3.586l-5.297-5.297 1.414-1.414 5.883 5.883z"/><path d="m47 60h-4.414l-4-4h-6.586v-2h7.414l4 4h3.586z"/><path d="m37.414 62h-5.414v-2h4.586l3.707-3.707 1.414 1.414z"/><path d="m44 46h-4v-2h2v-5h2z"/><path d="m47 16h2v8h-2z"/><path d="m43.707 45.707-1.414-1.414 6.707-6.707v-4.586h2v5.414z"/><path d="m37 14h2v6h-2z"/><path d="m57 62h-2v-5.414l2.293-2.293 1.414 1.414-1.707 1.707z"/><path d="m45 50h7v2h-7z"/><path d="m32 33h6v2h-6z"/><path d="m44.414 28h-4.684v-2h3.856l.414-.414v-1.586h2v2.414z"/><path d="m42 45h2v4h-2z"/><path d="m32 44h4v2h-4z"/><path d="m48 51h2v6h-2z"/><path d="m32 25h4v2h-4z"/></g><path d="m48 17c-1.654 0-3-1.346-3-3s1.346-3 3-3 3 1.346 3 3-1.346 3-3 3z" fill="#f4b34a"/><path d="m54 27c-1.654 0-3-1.346-3-3s1.346-3 3-3 3 1.346 3 3-1.346 3-3 3z" fill="#f4b34a"/><path d="m50 34c-1.654 0-3-1.346-3-3s1.346-3 3-3 3 1.346 3 3-1.346 3-3 3z" fill="#f4b34a"/><path d="m38 48c-1.654 0-3-1.346-3-3s1.346-3 3-3 3 1.346 3 3-1.346 3-3 3z" fill="#f4b34a"/><path d="m43 54c-1.654 0-3-1.346-3-3s1.346-3 3-3 3 1.346 3 3-1.346 3-3 3z" fill="#f4b34a"/><path d="m49 62c-1.654 0-3-1.346-3-3s1.346-3 3-3 3 1.346 3 3-1.346 3-3 3z" fill="#f4b34a"/><path d="m54 54c-1.654 0-3-1.346-3-3s1.346-3 3-3 3 1.346 3 3-1.346 3-3 3z" fill="#f4b34a"/><path d="m43 40c-1.654 0-3-1.346-3-3s1.346-3 3-3 3 1.346 3 3-1.346 3-3 3z" fill="#f4b34a"/><path d="m38 29c-1.654 0-3-1.346-3-3s1.346-3 3-3 3 1.346 3 3-1.346 3-3 3z" fill="#f4b34a"/><path d="m38 15c-1.654 0-3-1.346-3-3s1.346-3 3-3 3 1.346 3 3-1.346 3-3 3z" fill="#f4b34a"/><path d="m12 22h2v8h-2z" fill="#dbc6a9"/></svg>