<?xml version="1.0" encoding="UTF-8" standalone="no"?>
<svg
   xmlns:dc="http://purl.org/dc/elements/1.1/"
   xmlns:cc="http://creativecommons.org/ns#"
   xmlns:rdf="http://www.w3.org/1999/02/22-rdf-syntax-ns#"
   xmlns:svg="http://www.w3.org/2000/svg"
   xmlns="http://www.w3.org/2000/svg"
   xml:space="preserve"
   style="enable-background:new 0 0 100 40;"
   viewBox="0 0 100 40"
   y="0px"
   x="0px"
   id="Layer_1"
   version="1.1"><metadata
   id="metadata87"><rdf:RDF><cc:Work
       rdf:about=""><dc:format>image/svg+xml</dc:format><dc:type
         rdf:resource="http://purl.org/dc/dcmitype/StillImage" /></cc:Work></rdf:RDF></metadata><defs
   id="defs85" />
<style
   id="style2"
   type="text/css">
	.st0{fill:#52F2F2;}
</style>
<g
   id="g80">
	<g
   id="g40">
		<g
   id="g8">
			<g
   id="g6">
				<path
   id="path4"
   d="M20,16.36c0.08-0.44,0.17-0.87,0.25-1.31c-1.09,0-2.17,0-3.26,0c3.21,6.35,4.44,13.11,3.37,20.17      c0.92-0.38,1.85-0.75,2.77-1.13c-9.87-5.5,7.5-14.71,10.9-17.8c3.92-3.57,6.2-8.57,3.53-13.51c-0.83-1.54-2.92-0.98-3.45,0.45      c-1.81,4.88-2.19,15.31,5.29,15.8c7.46,0.49,8.44-11.06,7.4-16.03c-0.42-1.99-3.03-1.58-3.64,0c-1.42,3.71-2.18,7.85,0.35,11.27      c2.44,3.3,6.46,4.18,10.27,2.98c6.39-2.03,14.06-10.55,7.72-16.58c-0.94-0.89-2.26-0.62-2.96,0.38c-3.4,4.83-4.26,13.05,2,16.1      c6.85,3.33,12.32-4.33,13.58-10.13c-1.21-0.33-2.43-0.67-3.64-1c-1.42,9.77,0.63,19.03,5.89,27.38      c1.29,2.05,4.56,0.16,3.26-1.91c-4.68-7.43-6.78-15.72-5.51-24.47c0.34-2.34-3.11-3.43-3.64-1c-0.78,3.59-5.24,11.83-9.59,6.3      c-2.32-2.95-1.08-6.54,0.9-9.36c-0.99,0.13-1.98,0.25-2.96,0.38c0.27,1.52,0.53,3.03,0.8,4.55c-0.54,0.7-1.08,1.4-1.62,2.1      c-1.28,1.38-2.88,2.83-4.72,3.33c-2.77,0.76-5.91,0.27-7.02-2.59C45.3,8.22,45.85,6.48,46.79,4c-1.21,0-2.43,0-3.64,0      c0.38,1.81,0.56,3.72,0.19,5.55c-0.14,0.54-0.29,1.07-0.43,1.61c-0.27,2.81-1.47,3.41-3.61,1.82c-2.91-0.98-2.79-1.69-2.57-4.56      c0.12-1.53,0.48-2.74,1.02-4.19c-1.15,0.15-2.3,0.3-3.45,0.45c4.52,8.36-12.79,14.03-16.16,20.04      c-2.55,4.56-1.57,10.03,3.09,12.62c0.96,0.53,2.58,0.12,2.77-1.13c1.24-8.14-0.03-15.74-3.75-23.08c-0.65-1.28-2.59-1.18-3.26,0      c-0.77,1.35-0.9,1.66-0.77,3.21C16.43,18.76,20.2,18.78,20,16.36L20,16.36z"
   class="st0" />
			</g>
		</g>
		<g
   id="g14">
			<g
   id="g12">
				<path
   id="path10"
   d="M33.54,34.86c1.03-4.22,2.07-8.43,3.1-12.65c-1.05,0.28-2.1,0.56-3.16,0.83c3.19,3.76,5.89,7.84,8.1,12.24      c1.09,2.17,4.35,0.26,3.26-1.91c-2.36-4.69-5.3-9-8.69-13c-0.92-1.09-2.83-0.47-3.16,0.83c-1.03,4.22-2.07,8.43-3.1,12.65      C29.32,36.22,32.96,37.23,33.54,34.86L33.54,34.86z"
   class="st0" />
			</g>
		</g>
		<g
   id="g20">
			<g
   id="g18">
				<path
   id="path16"
   d="M33.18,32.41c2.06,0.21,4.11,0.03,6.12-0.49c2.35-0.61,1.35-4.25-1-3.64c-1.69,0.44-3.37,0.53-5.11,0.35      c-1.02-0.11-1.89,0.94-1.89,1.89C31.29,31.63,32.16,32.3,33.18,32.41L33.18,32.41z"
   class="st0" />
			</g>
		</g>
		<g
   id="g26">
			<g
   id="g24">
				<path
   id="path22"
   d="M43.77,25.37c0.44,2.89,1.16,5.67,2.16,8.41c0.82,2.25,4.38,1.34,3.64-1c-1.05-3.31-1.47-6.61-1.26-10.08      c-1.17,0.32-2.35,0.64-3.52,0.95c1.66,3.69,4.27,7.08,8.73,6.76c1.51-0.11,3.1-0.67,4.09-1.86c0.46-0.56,0.76-1.18,0.9-1.9      c0.12-0.62-0.27-2.23,0.15-2.66c-1.05-0.28-2.1-0.56-3.16-0.83c1.18,3.91,2.37,7.82,3.55,11.73c0.7,2.32,4.35,1.33,3.64-1      c-1.18-3.91-2.37-7.82-3.55-11.73c-0.4-1.33-2.14-1.88-3.16-0.83c-0.62,0.63-1.02,1.24-1.18,2.13c-0.2,1.14,0.47,2.37-0.79,3.07      c-2.91,1.59-5.1-2.81-5.98-4.77c-0.83-1.84-3.42-0.74-3.52,0.95c-0.22,3.8,0.25,7.46,1.4,11.08c1.21-0.33,2.43-0.67,3.64-1      c-1-2.75-1.72-5.52-2.16-8.41C47.05,21.98,43.41,22.99,43.77,25.37L43.77,25.37z"
   class="st0" />
			</g>
		</g>
		<g
   id="g32">
			<g
   id="g30">
				<path
   id="path28"
   d="M61.02,22.56c1.12,4.88,2.24,9.75,3.36,14.63c0.54,2.37,4.18,1.37,3.64-1c-1.12-4.88-2.24-9.75-3.36-14.63      C64.12,19.19,60.48,20.19,61.02,22.56L61.02,22.56z"
   class="st0" />
			</g>
		</g>
		<g
   id="g38">
			<g
   id="g36">
				<path
   id="path34"
   d="M65.6,30.81c3.18-0.46,6.36-0.92,9.54-1.38c2.4-0.35,1.38-3.99-1-3.64c-3.18,0.46-6.36,0.92-9.54,1.38      C62.2,27.51,63.22,31.15,65.6,30.81L65.6,30.81z"
   class="st0" />
			</g>
		</g>
	</g>
	<g
   id="g78">
		<g
   id="g46">
			<g
   id="g44">
				<path
   id="path42"
   d="M14.98,15.91c3.08,6.55,5.92,13.06,4.93,20.44c1.07-0.44,2.15-0.89,3.22-1.33C11.73,22.49,44.16,18.48,34.96,5.19      c-0.89-1.29-3-1.2-3.45,0.45c-0.95,3.47-1.82,7.38,0.28,10.62c1.73,2.67,4.99,4.33,8.18,3.73c7.31-1.36,9.72-10.68,7.47-16.73      c-0.63-1.69-3.08-1.89-3.64,0c-1.16,3.92-2.03,8.3,0.76,11.77c2.29,2.85,6.05,3.9,9.47,2.67C60,15.58,66.75,6.47,62.09,0.67      c-0.6-0.75-2.06-0.72-2.67,0c-2.52,2.99-3.96,6.59-3.14,10.54c0.62,3,2.71,6.85,6.24,6.76C66.9,17.86,79.6,4.42,71.79,3.19      C70.58,3,69.42,3.68,69.4,5.01c-0.18,8.99,0.95,17.76,3.36,26.43c0.65,2.34,4.29,1.34,3.64-1C74.08,22.1,73,13.67,73.17,5.01      c-0.8,0.61-1.59,1.21-2.39,1.82c-1.55-0.24-4,5.13-5.88,5.73c-6.67,2.14-5.47-6.07-2.81-9.22c-0.89,0-1.78,0-2.67,0      c2.25,2.8-2.2,7.56-4.18,9.26c-2.84,2.45-7.32,2.54-8.67-1.77c-0.61-1.94,0.32-4.69,0.87-6.55c-1.21,0-2.43,0-3.64,0      c1.2,3.23,1.19,7.44-1.51,10.05c-1.59,1.54-4.86,1.82-6.82,0.58c-2.39-1.51-0.89-6.19-0.32-8.25C34,6.8,32.85,6.95,31.7,7.1      c4.59,6.64-10.1,12.02-13.04,16.75c-2.91,4.67-1.74,9.95,1.81,13.84c1.23,1.35,3.02,0.14,3.22-1.33      c1.08-8.03-2.1-15.22-5.45-22.34C17.21,11.81,13.95,13.72,14.98,15.91L14.98,15.91z" />
			</g>
		</g>
		<g
   id="g52">
			<g
   id="g50">
				<path
   id="path48"
   d="M31.72,35.97c0.87-5.43,1.74-10.86,2.61-16.29c-1.05,0.28-2.1,0.56-3.16,0.83c4.22,4.62,7.6,9.77,10.1,15.52      c0.97,2.22,4.22,0.3,3.26-1.91c-2.62-6.04-6.26-11.43-10.69-16.28c-0.89-0.98-2.93-0.57-3.16,0.83      c-0.87,5.43-1.74,10.86-2.61,16.29C27.7,37.34,31.34,38.37,31.72,35.97L31.72,35.97z" />
			</g>
		</g>
		<g
   id="g58">
			<g
   id="g56">
				<path
   id="path54"
   d="M33.09,31.93c2.42-0.34,4.85-0.68,7.27-1.02c1.02-0.14,1.55-1.43,1.32-2.32c-0.29-1.09-1.32-1.46-2.32-1.32      c-2.42,0.34-4.85,0.68-7.27,1.02c-1.02,0.14-1.55,1.43-1.32,2.32C31.06,31.7,32.09,32.07,33.09,31.93L33.09,31.93z" />
			</g>
		</g>
		<g
   id="g64">
			<g
   id="g62">
				<path
   id="path60"
   d="M49.15,32.71c-0.58-3.7-1.16-7.4-1.74-11.11c-1.15,0.48-2.3,0.97-3.45,1.45c1.34,2.9,4.24,7.09,7.9,6.94      c4.09-0.17,4.4-6.08,5.24-9.05c-1.21,0-2.43,0-3.64,0c1.1,5.01,2.95,9.72,5.46,14.2c1.19,2.12,4.45,0.22,3.26-1.91      c-2.36-4.2-4.05-8.59-5.08-13.29c-0.41-1.87-3.15-1.72-3.64,0c-0.29,1.02-0.58,2.05-0.88,3.07c-0.28,0.99-0.41,2.86-1.32,2.97      c-1.6,0.18-3.52-3.69-4.04-4.82c-0.97-2.1-3.75-0.48-3.45,1.45c0.58,3.7,1.16,7.4,1.74,11.11      C45.89,36.11,49.52,35.09,49.15,32.71L49.15,32.71z" />
			</g>
		</g>
		<g
   id="g70">
			<g
   id="g68">
				<path
   id="path66"
   d="M59.19,21.27c1.35,5.91,3.31,11.58,5.79,17.1c0.99,2.21,4.25,0.29,3.26-1.91c-2.35-5.22-4.14-10.62-5.41-16.2      C62.29,17.89,58.65,18.9,59.19,21.27L59.19,21.27z" />
			</g>
		</g>
		<g
   id="g76">
			<g
   id="g74">
				<path
   id="path72"
   d="M62.97,29.66c2.43-0.3,4.86-0.61,7.29-0.91c1.02-0.13,1.88-0.78,1.89-1.89c0.01-0.92-0.88-2.01-1.89-1.89      c-2.43,0.3-4.86,0.61-7.29,0.91c-1.02,0.13-1.88,0.78-1.89,1.89C61.07,28.7,61.96,29.79,62.97,29.66L62.97,29.66z" />
			</g>
		</g>
	</g>
</g>
</svg>